<?xml version="1.0" encoding="UTF-8"?>
<svg width="1530" height="850" version="1.1" viewBox="0 0 404.81 224.9" xmlns="http://www.w3.org/2000/svg"><defs><marker id="TriangleStart" overflow="visible" markerHeight="6.155385" markerWidth="5.3244081" orient="auto-start-reverse" preserveAspectRatio="xMidYMid" viewBox="0 0 5.3244081 6.1553851"><path transform="scale(.5)" d="m5.77 0-8.65 5v-10z" fill="context-stroke" fill-rule="evenodd" stroke="context-stroke" stroke-width="1pt"/></marker></defs><g fill="#fff"><g stroke-width=".43828"></g></g><path d="m43.472 137.96h-20.432v-43.788h40.842v43.788z" fill="#729fcf" fill-rule="evenodd"/><path d="m43.472 137.96h-20.432v-43.788h40.842v43.788h-20.41" fill="none" stroke="#3465a4" stroke-linecap="round" stroke-linejoin="round" stroke-width=".022199px"/><path d="m127.51 24.862c0 3.8387-0.94333 7.6314-2.7442 10.964-1.7795 3.31-4.3736 6.0913-7.4609 7.9991-3.1087 1.9308-6.6462 2.9422-10.227 2.9422-3.5804 0-7.1178-1.0114-10.205-2.9422-3.1087-1.9078-5.7028-4.6892-7.4823-7.9991-1.8009-3.333-2.7442-7.1257-2.7442-10.964 0-3.8387 0.94333-7.6314 2.7442-10.941 1.7795-3.333 4.3736-6.1143 7.4609-8.0221 3.1087-1.9308 6.6462-2.9422 10.227-2.9422 3.5804 0 7.1178 1.0114 10.205 2.9422 3.1087 1.9078 5.7028 4.6892 7.4823 8.0221 1.8009 3.31 2.7442 7.1027 2.7442 10.941z" fill="#81d41a" fill-rule="evenodd"/><path d="m127.51 24.862c0 3.8387-0.94333 7.6314-2.7442 10.964-1.7795 3.31-4.3736 6.0913-7.4609 7.9991-3.1087 1.9308-6.6462 2.9422-10.227 2.9422-3.5804 0-7.1178-1.0114-10.205-2.9422-3.1087-1.9078-5.7028-4.6892-7.4823-7.9991-1.8009-3.333-2.7442-7.1257-2.7442-10.964 0-3.8387 0.94333-7.6314 2.7442-10.941 1.7795-3.333 4.3736-6.1143 7.4609-8.0221 3.1087-1.9308 6.6462-2.9422 10.227-2.9422 3.5804 0 7.1178 1.0114 10.205 2.9422 3.1087 1.9078 5.7028 4.6892 7.4823 8.0221 1.8009 3.31 2.7442 7.1027 2.7442 10.941v0" fill="none" stroke="#3465a4" stroke-linecap="round" stroke-linejoin="round" stroke-width=".022199px"/><path d="m209.2 24.885c0 3.8387-0.94332 7.6084-2.7442 10.941-1.7795 3.333-4.3736 6.0913-7.4609 7.9991-3.1087 1.9308-6.6462 2.9422-10.227 2.9422-3.5804 0-7.1178-1.0114-10.205-2.9422-3.1087-1.9078-5.7028-4.6662-7.4823-7.9991-1.8009-3.333-2.7442-7.1027-2.7442-10.941 0-3.8617 0.94333-7.6314 2.7442-10.964 1.7794-3.333 4.3736-6.0913 7.4823-7.9991 3.0872-1.9308 6.6247-2.9422 10.205-2.9422 3.5804 0 7.1178 1.0114 10.227 2.9422 3.0873 1.9078 5.6814 4.6662 7.4609 7.9991 1.8009 3.333 2.7442 7.1027 2.7442 10.964z" fill="#800080" fill-rule="evenodd"/><path d="m209.2 24.885c0 3.8387-0.94332 7.6084-2.7442 10.941-1.7795 3.333-4.3736 6.0913-7.4609 7.9991-3.1087 1.9308-6.6462 2.9422-10.227 2.9422-3.5804 0-7.1178-1.0114-10.205-2.9422-3.1087-1.9078-5.7028-4.6662-7.4823-7.9991-1.8009-3.333-2.7442-7.1027-2.7442-10.941 0-3.8617 0.94333-7.6314 2.7442-10.964 1.7794-3.333 4.3736-6.0913 7.4823-7.9991 3.0872-1.9308 6.6247-2.9422 10.205-2.9422 3.5804 0 7.1178 1.0114 10.227 2.9422 3.0873 1.9078 5.6814 4.6662 7.4609 7.9991 1.8009 3.333 2.7442 7.1027 2.7442 10.964" fill="none" stroke="#3465a4" stroke-linecap="round" stroke-linejoin="round" stroke-width=".022199px"/><path d="m290.88 24.908c0 3.8387-0.94331 7.6084-2.7442 10.941-1.7795 3.333-4.3736 6.0913-7.4609 7.9991-3.1087 1.9308-6.6461 2.9422-10.227 2.9422-3.5803 0-7.1178-1.0114-10.205-2.9422-3.1087-1.9078-5.7028-4.6662-7.4823-7.9991-1.8009-3.333-2.7442-7.1027-2.7442-10.941 0-3.8617 0.94333-7.6314 2.7442-10.964 1.7794-3.333 4.3736-6.0913 7.4823-7.9992 3.0872-1.9308 6.6247-2.9422 10.205-2.9422 3.5804 0 7.1178 1.0114 10.227 2.9422 3.0873 1.9078 5.6814 4.6662 7.4609 7.9992 1.8009 3.333 2.7442 7.1027 2.7442 10.964z" fill="#ff8000" fill-rule="evenodd"/><path d="m290.88 24.908c0 3.8387-0.94331 7.6084-2.7442 10.941-1.7795 3.333-4.3736 6.0913-7.4609 7.9991-3.1087 1.9308-6.6461 2.9422-10.227 2.9422-3.5803 0-7.1178-1.0114-10.205-2.9422-3.1087-1.9078-5.7028-4.6662-7.4823-7.9991-1.8009-3.333-2.7442-7.1027-2.7442-10.941 0-3.8617 0.94333-7.6314 2.7442-10.964 1.7794-3.333 4.3736-6.0913 7.4823-7.9992 3.0872-1.9308 6.6247-2.9422 10.205-2.9422 3.5804 0 7.1178 1.0114 10.227 2.9422 3.0873 1.9078 5.6814 4.6662 7.4609 7.9992 1.8009 3.333 2.7442 7.1027 2.7442 10.964" fill="none" stroke="#3465a4" stroke-linecap="round" stroke-linejoin="round" stroke-width=".022199px"/><path d="m127.51 116.1c0 3.8387-0.94333 7.6084-2.7442 10.941-1.7795 3.333-4.3736 6.0913-7.4609 7.9991-3.1087 1.9308-6.6462 2.9422-10.227 2.9422-3.5804 0-7.1178-1.0114-10.205-2.9422-3.1087-1.9078-5.7028-4.6662-7.4823-7.9991-1.8009-3.333-2.7442-7.1027-2.7442-10.941 0-3.8617 0.94333-7.6314 2.7442-10.964 1.7795-3.333 4.3736-6.0913 7.4609-7.9991 3.1087-1.9308 6.6462-2.9422 10.227-2.9422 3.5804 0 7.1178 1.0114 10.205 2.9422 3.1087 1.9078 5.7028 4.6662 7.4823 7.9991 1.8009 3.333 2.7442 7.1027 2.7442 10.964z" fill="#81d41a" fill-rule="evenodd"/><path d="m127.51 116.1c0 3.8387-0.94333 7.6084-2.7442 10.941-1.7795 3.333-4.3736 6.0913-7.4609 7.9991-3.1087 1.9308-6.6462 2.9422-10.227 2.9422-3.5804 0-7.1178-1.0114-10.205-2.9422-3.1087-1.9078-5.7028-4.6662-7.4823-7.9991-1.8009-3.333-2.7442-7.1027-2.7442-10.941 0-3.8617 0.94333-7.6314 2.7442-10.964 1.7795-3.333 4.3736-6.0913 7.4609-7.9991 3.1087-1.9308 6.6462-2.9422 10.227-2.9422 3.5804 0 7.1178 1.0114 10.205 2.9422 3.1087 1.9078 5.7028 4.6662 7.4823 7.9991 1.8009 3.333 2.7442 7.1027 2.7442 10.964" fill="none" stroke="#3465a4" stroke-linecap="round" stroke-linejoin="round" stroke-width=".022199px"/><path d="m209.2 116.1c0 3.8387-0.94332 7.6084-2.7442 10.941-1.7795 3.333-4.3736 6.0913-7.4609 7.9991-3.1087 1.9308-6.6462 2.9422-10.227 2.9422-3.5804 0-7.1178-1.0114-10.205-2.9422-3.1087-1.9078-5.7028-4.6662-7.4823-7.9991-1.8009-3.333-2.7442-7.1027-2.7442-10.941 0-3.8617 0.94333-7.6314 2.7442-10.964 1.7794-3.333 4.3736-6.0913 7.4823-7.9991 3.0872-1.9308 6.6247-2.9422 10.205-2.9422 3.5804 0 7.1178 1.0114 10.227 2.9422 3.0873 1.9078 5.6814 4.6662 7.4609 7.9991 1.8009 3.333 2.7442 7.1027 2.7442 10.964z" fill="#800080" fill-rule="evenodd"/><path d="m209.2 116.1c0 3.8387-0.94332 7.6084-2.7442 10.941-1.7795 3.333-4.3736 6.0913-7.4609 7.9991-3.1087 1.9308-6.6462 2.9422-10.227 2.9422-3.5804 0-7.1178-1.0114-10.205-2.9422-3.1087-1.9078-5.7028-4.6662-7.4823-7.9991-1.8009-3.333-2.7442-7.1027-2.7442-10.941 0-3.8617 0.94333-7.6314 2.7442-10.964 1.7794-3.333 4.3736-6.0913 7.4823-7.9991 3.0872-1.9308 6.6247-2.9422 10.205-2.9422 3.5804 0 7.1178 1.0114 10.227 2.9422 3.0873 1.9078 5.6814 4.6662 7.4609 7.9991 1.8009 3.333 2.7442 7.1027 2.7442 10.964" fill="none" stroke="#3465a4" stroke-linecap="round" stroke-linejoin="round" stroke-width=".022199px"/><path d="m290.88 114.54c0 3.8387-0.94331 7.6084-2.7442 10.941-1.7795 3.333-4.3736 6.0913-7.4609 7.9991-3.1087 1.9308-6.6461 2.9422-10.227 2.9422-3.5803 0-7.1178-1.0114-10.205-2.9422-3.1087-1.9078-5.7028-4.6662-7.4823-7.9991-1.8009-3.333-2.7442-7.1027-2.7442-10.941 0-3.8617 0.94333-7.6314 2.7442-10.964 1.7794-3.333 4.3736-6.0913 7.4823-7.9991 3.0872-1.9308 6.6247-2.9422 10.205-2.9422 3.5804 0 7.1178 1.0114 10.227 2.9422 3.0873 1.9078 5.6814 4.6662 7.4609 7.9991 1.8009 3.333 2.7442 7.1027 2.7442 10.964z" fill="#ff8000" fill-rule="evenodd"/><path d="m290.88 114.54c0 3.8387-0.94331 7.6084-2.7442 10.941-1.7795 3.333-4.3736 6.0913-7.4609 7.9991-3.1087 1.9308-6.6461 2.9422-10.227 2.9422-3.5803 0-7.1178-1.0114-10.205-2.9422-3.1087-1.9078-5.7028-4.6662-7.4823-7.9991-1.8009-3.333-2.7442-7.1027-2.7442-10.941 0-3.8617 0.94333-7.6314 2.7442-10.964 1.7794-3.333 4.3736-6.0913 7.4823-7.9991 3.0872-1.9308 6.6247-2.9422 10.205-2.9422 3.5804 0 7.1178 1.0114 10.227 2.9422 3.0873 1.9078 5.6814 4.6662 7.4609 7.9991 1.8009 3.333 2.7442 7.1027 2.7442 10.964" fill="none" stroke="#3465a4" stroke-linecap="round" stroke-linejoin="round" stroke-width=".022199px"/><path d="m127.51 200.04c0 3.8387-0.94333 7.6084-2.7442 10.941-1.7795 3.333-4.3736 6.0913-7.4609 7.9992-3.1087 1.9308-6.6462 2.9422-10.227 2.9422-3.5804 0-7.1178-1.0114-10.205-2.9422-3.1087-1.9078-5.7028-4.6662-7.4823-7.9992-1.8009-3.333-2.7442-7.1027-2.7442-10.941 0-3.8617 0.94333-7.6314 2.7442-10.964 1.7795-3.333 4.3736-6.0913 7.4609-7.9991 3.1087-1.9308 6.6462-2.9422 10.227-2.9422 3.5804 0 7.1178 1.0114 10.205 2.9422 3.1087 1.9078 5.7028 4.6662 7.4823 7.9991 1.8009 3.333 2.7442 7.1027 2.7442 10.964z" fill="#81d41a" fill-rule="evenodd"/><path d="m127.51 200.04c0 3.8387-0.94333 7.6084-2.7442 10.941-1.7795 3.333-4.3736 6.0913-7.4609 7.9992-3.1087 1.9308-6.6462 2.9422-10.227 2.9422-3.5804 0-7.1178-1.0114-10.205-2.9422-3.1087-1.9078-5.7028-4.6662-7.4823-7.9992-1.8009-3.333-2.7442-7.1027-2.7442-10.941 0-3.8617 0.94333-7.6314 2.7442-10.964 1.7795-3.333 4.3736-6.0913 7.4609-7.9991 3.1087-1.9308 6.6462-2.9422 10.227-2.9422 3.5804 0 7.1178 1.0114 10.205 2.9422 3.1087 1.9078 5.7028 4.6662 7.4823 7.9991 1.8009 3.333 2.7442 7.1027 2.7442 10.964" fill="none" stroke="#3465a4" stroke-linecap="round" stroke-linejoin="round" stroke-width=".022199px"/><path d="m209.2 200.06c0 3.8387-0.94332 7.6084-2.7442 10.941-1.7795 3.333-4.3736 6.0913-7.4609 7.9992-3.1087 1.9308-6.6462 2.9422-10.227 2.9422-3.5804 0-7.1178-1.0114-10.205-2.9422-3.1087-1.9078-5.7028-4.6662-7.4823-7.9992-1.8009-3.333-2.7442-7.1027-2.7442-10.941 0-3.8617 0.94333-7.6314 2.7442-10.964 1.7794-3.333 4.3736-6.0913 7.4823-7.9992 3.0872-1.9308 6.6247-2.9422 10.205-2.9422 3.5804 0 7.1178 1.0114 10.227 2.9422 3.0873 1.9078 5.6814 4.6662 7.4609 7.9992 1.8009 3.333 2.7442 7.1027 2.7442 10.964z" fill="#800080" fill-rule="evenodd"/><path d="m209.2 200.06c0 3.8387-0.94332 7.6084-2.7442 10.941-1.7795 3.333-4.3736 6.0913-7.4609 7.9992-3.1087 1.9308-6.6462 2.9422-10.227 2.9422-3.5804 0-7.1178-1.0114-10.205-2.9422-3.1087-1.9078-5.7028-4.6662-7.4823-7.9992-1.8009-3.333-2.7442-7.1027-2.7442-10.941 0-3.8617 0.94333-7.6314 2.7442-10.964 1.7794-3.333 4.3736-6.0913 7.4823-7.9992 3.0872-1.9308 6.6247-2.9422 10.205-2.9422 3.5804 0 7.1178 1.0114 10.227 2.9422 3.0873 1.9078 5.6814 4.6662 7.4609 7.9992 1.8009 3.333 2.7442 7.1027 2.7442 10.964" fill="none" stroke="#3465a4" stroke-linecap="round" stroke-linejoin="round" stroke-width=".022199px"/><path d="m290.88 200.06c0 3.8387-0.94331 7.6084-2.7442 10.941-1.7795 3.333-4.3736 6.0913-7.4609 7.9992-3.1087 1.9308-6.6461 2.9422-10.227 2.9422-3.5803 0-7.1178-1.0114-10.205-2.9422-3.1087-1.9078-5.7028-4.6662-7.4823-7.9992-1.8009-3.333-2.7442-7.1027-2.7442-10.941 0-3.8617 0.94333-7.6314 2.7442-10.964 1.7794-3.333 4.3736-6.0913 7.4823-7.9992 3.0872-1.9308 6.6247-2.9422 10.205-2.9422 3.5804 0 7.1178 1.0114 10.227 2.9422 3.0873 1.9078 5.6814 4.6662 7.4609 7.9992 1.8009 3.333 2.7442 7.1027 2.7442 10.964z" fill="#ff8000" fill-rule="evenodd"/><path d="m290.88 200.06c0 3.8387-0.94331 7.6084-2.7442 10.941-1.7795 3.333-4.3736 6.0913-7.4609 7.9992-3.1087 1.9308-6.6461 2.9422-10.227 2.9422-3.5803 0-7.1178-1.0114-10.205-2.9422-3.1087-1.9078-5.7028-4.6662-7.4823-7.9992-1.8009-3.333-2.7442-7.1027-2.7442-10.941 0-3.8617 0.94333-7.6314 2.7442-10.964 1.7794-3.333 4.3736-6.0913 7.4823-7.9992 3.0872-1.9308 6.6247-2.9422 10.205-2.9422 3.5804 0 7.1178 1.0114 10.227 2.9422 3.0873 1.9078 5.6814 4.6662 7.4609 7.9992 1.8009 3.333 2.7442 7.1027 2.7442 10.964" fill="none" stroke="#3465a4" stroke-linecap="round" stroke-linejoin="round" stroke-width=".022199px"/><path d="m354.66 86.912 24.741 46.225h-49.46z" fill="#729fcf" fill-rule="evenodd"/><path d="m354.66 86.912 24.741 46.225h-49.46l24.719-46.225" fill="none" stroke="#3465a4" stroke-linecap="round" stroke-linejoin="round" stroke-width=".022199px"/><g fill="#000000" font-family="'Liberation Sans'" font-size="14.105px" font-weight="400" letter-spacing="0px" stroke-width=".58924" word-spacing="0px"><text transform="scale(.96577 1.0354)" x="23.469664" y="145.54599" style="line-height:125%" xml:space="preserve"><tspan x="23.469664" y="145.54599">Your</tspan><tspan x="23.469664" y="163.17712">Device</tspan></text><text transform="scale(.96577 1.0354)" x="94.825874" y="62.193153" style="line-height:125%" xml:space="preserve"><tspan x="94.825874" y="62.193153" stroke-width=".58924"><tspan dx="0" dy="0" fill="#000000" font-family="'Liberation Sans'" font-size="14.105px" font-weight="400" stroke-width=".58924">Entry</tspan></tspan></text><text transform="scale(.96577 1.0354)" x="174.41451" y="148.45772" style="line-height:125%" xml:space="preserve"><tspan x="174.41451" y="148.45772" stroke-width=".58924"><tspan dx="0" dy="0" fill="#000000" font-family="'Liberation Sans'" font-size="14.105px" font-weight="400" stroke-width=".58924">Middle</tspan></tspan></text><text transform="scale(.96577 1.0354)" x="264.4498" y="60.728004" style="line-height:125%" xml:space="preserve"><tspan x="264.4498" y="60.728004" fill="#000000" stroke-width=".58924"><tspan dx="0" dy="0" fill="#000000" font-family="'Liberation Sans'" font-size="14.105px" font-weight="400" stroke-width=".58924">Exit</tspan></tspan></text><text transform="scale(.96577 1.0354)" x="300.71185" y="145.66841" style="line-height:125%" xml:space="preserve"><tspan x="300.71185" y="145.66841" stroke-width=".58924"><tspan dx="0" dy="0" fill="#000000" font-family="'Liberation Sans'" font-size="14.105px" font-weight="400" stroke-width=".58924">PrivacyGuides.org</tspan></tspan></text></g><circle cx="36.556" cy="65.106" r=".10406" stroke="#fff" stroke-width=".26459"/><g fill="none" stroke="#000"><path d="m51.589 92.549 36.295-48.233" marker-end="url(#TriangleStart)" stroke-width="1.2857"/><path d="m125.73 38.605 47.737 54.394" marker-end="url(#TriangleStart)" stroke-miterlimit="3.9" stroke-width="1.2979"/><path d="m203.03 95.599 47.384-52.701" marker-end="url(#TriangleStart)" stroke-width="1.2941"/><path d="m288.14 36.414 55.56 58.903" marker-end="url(#TriangleStart)" stroke-width="1.298"/></g></svg>
