<?xml version="1.0" encoding="UTF-8"?>
<svg width="1600" height="1100" version="1.1" viewBox="0 0 423.33 291.04" xmlns="http://www.w3.org/2000/svg"><g transform="translate(-27.597 12.24)"><path d="m51.709 62.175h-10.029v-21.505h20.057v21.505z" fill="#729fcf" fill-rule="evenodd"/><path d="m51.709 62.175h-10.029v-21.505h20.057v21.505h-10.029" fill="none" stroke="#3465a4" stroke-linecap="round" stroke-linejoin="round" stroke-width=".016353px"/><path d="m111.88 78.278h-30.086v-53.763h60.172v53.763z" fill="#81d41a" fill-rule="evenodd"/><path d="m111.88 78.278h-30.086v-53.763h60.172v53.763h-30.086" fill="none" stroke="#3465a4" stroke-linecap="round" stroke-linejoin="round" stroke-width=".016353px"/><path d="m111.88 67.525h-30.086v-32.258h60.172v32.258z" fill="#55308d" fill-rule="evenodd"/><path d="m111.88 67.525h-30.086v-32.258h60.172v32.258h-30.086" fill="none" stroke="#3465a4" stroke-linecap="round" stroke-linejoin="round" stroke-width=".016353px"/><path d="m111.88 56.773h-30.086v-10.753h60.172v10.753z" fill="#ff8000" fill-rule="evenodd"/><path d="m111.88 56.773h-30.086v-10.753h60.172v10.753h-30.086" fill="none" stroke="#3465a4" stroke-linecap="round" stroke-linejoin="round" stroke-width=".016353px"/><path d="m192.11 218.06h-30.086v-32.258h60.172v32.258z" fill="#55308d" fill-rule="evenodd"/><path d="m192.11 218.06h-30.086v-32.258h60.172v32.258h-30.086" fill="none" stroke="#3465a4" stroke-linecap="round" stroke-linejoin="round" stroke-width=".016353px"/><path d="m111.88 228.81h-30.086v-53.763h60.172v53.763z" fill="#81d41a" fill-rule="evenodd"/><path d="m111.88 228.81h-30.086v-53.763h60.172v53.763h-30.086" fill="none" stroke="#3465a4" stroke-linecap="round" stroke-linejoin="round" stroke-width=".016353px"/><path d="m111.88 218.06h-30.086v-32.258h60.172v32.258z" fill="#55308d" fill-rule="evenodd"/><path d="m111.88 218.06h-30.086v-32.258h60.172v32.258h-30.086" fill="none" stroke="#3465a4" stroke-linecap="round" stroke-linejoin="round" stroke-width=".016353px"/><path d="m111.88 207.31h-30.086v-10.753h60.172v10.753z" fill="#ff8000" fill-rule="evenodd"/><path d="m111.88 207.31h-30.086v-10.753h60.172v10.753h-30.086" fill="none" stroke="#3465a4" stroke-linecap="round" stroke-linejoin="round" stroke-width=".016353px"/><path d="m192.11 67.525h-30.086v-32.258h60.172v32.258z" fill="#55308d" fill-rule="evenodd"/><path d="m192.11 67.525h-30.086v-32.258h60.172v32.258h-30.086" fill="none" stroke="#3465a4" stroke-linecap="round" stroke-linejoin="round" stroke-width=".016353px"/><path d="m192.11 207.31h-30.086v-10.753h60.172v10.753z" fill="#ff8000" fill-rule="evenodd"/><path d="m192.11 207.31h-30.086v-10.753h60.172v10.753h-30.086" fill="none" stroke="#3465a4" stroke-linecap="round" stroke-linejoin="round" stroke-width=".016353px"/><path d="m192.11 56.773h-30.086v-10.753h60.172v10.753z" fill="#ff8000" fill-rule="evenodd"/><path d="m192.11 56.773h-30.086v-10.753h60.172v10.753h-30.086" fill="none" stroke="#3465a4" stroke-linecap="round" stroke-linejoin="round" stroke-width=".016353px"/><path d="m272.34 56.773h-30.086v-10.753h60.172v10.753z" fill="#ff8000" fill-rule="evenodd"/><path d="m272.34 56.773h-30.086v-10.753h60.172v10.753h-30.086" fill="none" stroke="#3465a4" stroke-linecap="round" stroke-linejoin="round" stroke-width=".016353px"/><path d="m272.34 207.31h-30.086v-10.753h60.172v10.753z" fill="#ff8000" fill-rule="evenodd"/><path d="m272.34 207.31h-30.086v-10.753h60.172v10.753h-30.086" fill="none" stroke="#3465a4" stroke-linecap="round" stroke-linejoin="round" stroke-width=".016353px"/><path d="m51.709 212.71h-10.029v-21.505h20.057v21.505z" fill="#729fcf" fill-rule="evenodd"/><path d="m51.709 212.71h-10.029v-21.505h20.057v21.505h-10.029" fill="none" stroke="#3465a4" stroke-linecap="round" stroke-linejoin="round" stroke-width=".016353px"/><path d="m162.01 51.439c0 1.8796-0.458 3.7423-1.3424 5.3679-0.88442 1.6425-2.1479 2.9972-3.664 3.9455-1.532 0.94826-3.2692 1.4393-5.0222 1.4393s-3.4903-0.49106-5.0064-1.4393c-1.5319-0.94826-2.7954-2.3029-3.6798-3.9455-0.88442-1.6256-1.3424-3.4883-1.3424-5.3679 0-1.8965 0.45801-3.7592 1.3424-5.3848 0.88441-1.6425 2.1479-2.9972 3.6798-3.9455 1.5162-0.94826 3.2534-1.4393 5.0064-1.4393s3.4903 0.49107 5.0222 1.4393c1.5162 0.94827 2.7796 2.3029 3.664 3.9455 0.88442 1.6256 1.3424 3.4883 1.3424 5.3679z" fill="#81d41a" fill-rule="evenodd"/><path d="m162.01 51.439c0 1.8796-0.458 3.7423-1.3424 5.3679-0.88442 1.6425-2.1479 2.9972-3.664 3.9455-1.532 0.94826-3.2692 1.4393-5.0222 1.4393s-3.4903-0.49106-5.0064-1.4393c-1.5319-0.94826-2.7954-2.3029-3.6798-3.9455-0.88442-1.6256-1.3424-3.4883-1.3424-5.3679 0-1.8965 0.45801-3.7592 1.3424-5.3848 0.88441-1.6425 2.1479-2.9972 3.6798-3.9455 1.5162-0.94826 3.2534-1.4393 5.0064-1.4393s3.4903 0.49107 5.0222 1.4393c1.5162 0.94827 2.7796 2.3029 3.664 3.9455 0.88442 1.6256 1.3424 3.4883 1.3424 5.3679v0.0169" fill="none" stroke="#3465a4" stroke-linecap="round" stroke-linejoin="round" stroke-width=".016353px"/><path d="m242.25 51.439c0 1.8796-0.458 3.7423-1.3424 5.3679-0.88442 1.6425-2.1479 2.9972-3.664 3.9455-1.5319 0.94826-3.2692 1.4393-5.0222 1.4393-1.753 0-3.4903-0.49106-5.0064-1.4393-1.5319-0.94826-2.7954-2.3029-3.6798-3.9455-0.88442-1.6256-1.3424-3.4883-1.3424-5.3679 0-1.8965 0.458-3.7592 1.3424-5.3848 0.88442-1.6425 2.1479-2.9972 3.6798-3.9455 1.5162-0.94826 3.2534-1.4393 5.0064-1.4393 1.753 0 3.4903 0.49107 5.0222 1.4393 1.5162 0.94827 2.7796 2.3029 3.664 3.9455 0.88442 1.6256 1.3424 3.4883 1.3424 5.3679z" fill="#55308d" fill-rule="evenodd"/><path d="m242.25 51.439c0 1.8796-0.458 3.7423-1.3424 5.3679-0.88442 1.6425-2.1479 2.9972-3.664 3.9455-1.5319 0.94826-3.2692 1.4393-5.0222 1.4393-1.753 0-3.4903-0.49106-5.0064-1.4393-1.5319-0.94826-2.7954-2.3029-3.6798-3.9455-0.88442-1.6256-1.3424-3.4883-1.3424-5.3679 0-1.8965 0.458-3.7592 1.3424-5.3848 0.88442-1.6425 2.1479-2.9972 3.6798-3.9455 1.5162-0.94826 3.2534-1.4393 5.0064-1.4393 1.753 0 3.4903 0.49107 5.0222 1.4393 1.5162 0.94827 2.7796 2.3029 3.664 3.9455 0.88442 1.6256 1.3424 3.4883 1.3424 5.3679v0.0169" fill="none" stroke="#3465a4" stroke-linecap="round" stroke-linejoin="round" stroke-width=".016353px"/><path d="m322.47 51.439c0 1.8796-0.45802 3.7423-1.3424 5.3679-0.88443 1.6425-2.1479 2.9972-3.664 3.9455-1.532 0.94826-3.2692 1.4393-5.0222 1.4393-1.753 0-3.4903-0.49106-5.0064-1.4393-1.532-0.94826-2.7954-2.3029-3.6798-3.9455-0.8844-1.6256-1.3424-3.4883-1.3424-5.3679 0-1.8965 0.45802-3.7592 1.3424-5.3848 0.88443-1.6425 2.1479-2.9972 3.6798-3.9455 1.5161-0.94826 3.2534-1.4393 5.0064-1.4393 1.753 0 3.4903 0.49107 5.0222 1.4393 1.5162 0.94827 2.7796 2.3029 3.664 3.9455 0.8844 1.6256 1.3424 3.4883 1.3424 5.3679z" fill="#ff8000" fill-rule="evenodd"/><path d="m322.47 51.439c0 1.8796-0.45802 3.7423-1.3424 5.3679-0.88443 1.6425-2.1479 2.9972-3.664 3.9455-1.532 0.94826-3.2692 1.4393-5.0222 1.4393-1.753 0-3.4903-0.49106-5.0064-1.4393-1.532-0.94826-2.7954-2.3029-3.6798-3.9455-0.8844-1.6256-1.3424-3.4883-1.3424-5.3679 0-1.8965 0.45802-3.7592 1.3424-5.3848 0.88443-1.6425 2.1479-2.9972 3.6798-3.9455 1.5161-0.94826 3.2534-1.4393 5.0064-1.4393 1.753 0 3.4903 0.49107 5.0222 1.4393 1.5162 0.94827 2.7796 2.3029 3.664 3.9455 0.8844 1.6256 1.3424 3.4883 1.3424 5.3679v0.0169" fill="none" stroke="#3465a4" stroke-linecap="round" stroke-linejoin="round" stroke-width=".016353px"/><path d="m162.02 201.98c0 1.8796-0.45801 3.7422-1.3424 5.3678-0.88442 1.6425-2.1479 2.9972-3.664 3.9455-1.5319 0.94826-3.2692 1.4393-5.0222 1.4393-1.753 0-3.4903-0.49107-5.0064-1.4393-1.532-0.94826-2.7954-2.3029-3.6798-3.9455-0.88441-1.6256-1.3424-3.4882-1.3424-5.3678 0-1.8965 0.45801-3.7592 1.3424-5.3848 0.88443-1.6425 2.1479-2.9972 3.6798-3.9454 1.5161-0.94827 3.2534-1.4393 5.0064-1.4393 1.753 0 3.4903 0.49106 5.0222 1.4393 1.5162 0.94826 2.7796 2.3029 3.664 3.9454 0.88441 1.6256 1.3424 3.4883 1.3424 5.3848z" fill="#81d41a" fill-rule="evenodd"/><path d="m162.02 201.98c0 1.8796-0.45801 3.7422-1.3424 5.3678-0.88442 1.6425-2.1479 2.9972-3.664 3.9455-1.5319 0.94826-3.2692 1.4393-5.0222 1.4393-1.753 0-3.4903-0.49107-5.0064-1.4393-1.532-0.94826-2.7954-2.3029-3.6798-3.9455-0.88441-1.6256-1.3424-3.4882-1.3424-5.3678 0-1.8965 0.45801-3.7592 1.3424-5.3848 0.88443-1.6425 2.1479-2.9972 3.6798-3.9454 1.5161-0.94827 3.2534-1.4393 5.0064-1.4393 1.753 0 3.4903 0.49106 5.0222 1.4393 1.5162 0.94826 2.7796 2.3029 3.664 3.9454 0.88441 1.6256 1.3424 3.4883 1.3424 5.3848" fill="none" stroke="#3465a4" stroke-linecap="round" stroke-linejoin="round" stroke-width=".016353px"/><path d="m242.24 201.98c0 1.8796-0.45801 3.7422-1.3424 5.3678-0.88442 1.6425-2.1479 2.9972-3.664 3.9455-1.5319 0.94826-3.2692 1.4393-5.0222 1.4393s-3.4903-0.49107-5.0064-1.4393c-1.5319-0.94826-2.7954-2.3029-3.6798-3.9455-0.88442-1.6256-1.3424-3.4882-1.3424-5.3678 0-1.8965 0.458-3.7592 1.3424-5.3848 0.88442-1.6425 2.1479-2.9972 3.6798-3.9454 1.5162-0.94827 3.2534-1.4393 5.0064-1.4393s3.4903 0.49106 5.0222 1.4393c1.5162 0.94826 2.7796 2.3029 3.664 3.9454 0.88442 1.6256 1.3424 3.4883 1.3424 5.3848z" fill="#55308d" fill-rule="evenodd"/><path d="m242.24 201.98c0 1.8796-0.45801 3.7422-1.3424 5.3678-0.88442 1.6425-2.1479 2.9972-3.664 3.9455-1.5319 0.94826-3.2692 1.4393-5.0222 1.4393s-3.4903-0.49107-5.0064-1.4393c-1.5319-0.94826-2.7954-2.3029-3.6798-3.9455-0.88442-1.6256-1.3424-3.4882-1.3424-5.3678 0-1.8965 0.458-3.7592 1.3424-5.3848 0.88442-1.6425 2.1479-2.9972 3.6798-3.9454 1.5162-0.94827 3.2534-1.4393 5.0064-1.4393s3.4903 0.49106 5.0222 1.4393c1.5162 0.94826 2.7796 2.3029 3.664 3.9454 0.88442 1.6256 1.3424 3.4883 1.3424 5.3848" fill="none" stroke="#3465a4" stroke-linecap="round" stroke-linejoin="round" stroke-width=".016353px"/><path d="m322.48 201.98c0 1.8796-0.45802 3.7422-1.3424 5.3678-0.88443 1.6425-2.1479 2.9972-3.664 3.9455-1.5319 0.94826-3.2692 1.4393-5.0222 1.4393s-3.4903-0.49107-5.0064-1.4393c-1.5319-0.94826-2.7954-2.3029-3.6798-3.9455-0.88443-1.6256-1.3424-3.4882-1.3424-5.3678 0-1.8965 0.45799-3.7592 1.3424-5.3848 0.8844-1.6425 2.1479-2.9972 3.6798-3.9454 1.5161-0.94827 3.2534-1.4393 5.0064-1.4393s3.4903 0.49106 5.0222 1.4393c1.5161 0.94826 2.7796 2.3029 3.664 3.9454 0.8844 1.6256 1.3424 3.4883 1.3424 5.3848z" fill="#ff8000" fill-rule="evenodd"/><path d="m322.48 201.98c0 1.8796-0.45802 3.7422-1.3424 5.3678-0.88443 1.6425-2.1479 2.9972-3.664 3.9455-1.5319 0.94826-3.2692 1.4393-5.0222 1.4393s-3.4903-0.49107-5.0064-1.4393c-1.5319-0.94826-2.7954-2.3029-3.6798-3.9455-0.88443-1.6256-1.3424-3.4882-1.3424-5.3678 0-1.8965 0.45799-3.7592 1.3424-5.3848 0.8844-1.6425 2.1479-2.9972 3.6798-3.9454 1.5161-0.94827 3.2534-1.4393 5.0064-1.4393s3.4903 0.49106 5.0222 1.4393c1.5161 0.94826 2.7796 2.3029 3.664 3.9454 0.8844 1.6256 1.3424 3.4883 1.3424 5.3848" fill="none" stroke="#3465a4" stroke-linecap="round" stroke-linejoin="round" stroke-width=".016353px"/><path d="m390.16 40.669 12.54 21.522h-25.08z" fill="#729fcf" fill-rule="evenodd"/><path d="m390.16 40.669 12.54 21.522h-25.08l12.54-21.522" fill="none" stroke="#3465a4" stroke-linecap="round" stroke-linejoin="round" stroke-width=".016353px"/><path d="m390.17 191.21 12.54 21.522h-25.08z" fill="#729fcf" fill-rule="evenodd"/><path d="m390.17 191.21 12.54 21.522h-25.08l12.54-21.522" fill="none" stroke="#3465a4" stroke-linecap="round" stroke-linejoin="round" stroke-width=".016353px"/><g fill="#ffffff" font-family="'Liberation Sans'" font-size="10.373px" font-weight="400" letter-spacing="0px" stroke-width=".43334" word-spacing="0px"><text transform="scale(.96575 1.0355)" x="42.045975" y="90.871056" style="line-height:125%" xml:space="preserve"><tspan x="42.045975" y="90.871056"><tspan x="42.045975" y="90.871056" fill="#ffffff" stroke-width=".43334">Your</tspan></tspan><tspan x="42.045975" y="103.83743">Device</tspan></text><text transform="scale(.96575 1.0355)" x="68.015038" y="14.386603" style="line-height:125%" xml:space="preserve"><tspan x="68.015038" y="14.386603" fill="#ffffff" stroke-width=".43334"><tspan dx="0" dy="0" fill="#ffffff" font-family="'Liberation Sans'" font-size="10.373px" font-weight="400" stroke-width=".43334">Sending data to a website.</tspan></tspan></text><text transform="scale(.96575 1.0355)" x="78.399384" y="159.76756" style="line-height:125%" xml:space="preserve"><tspan x="78.399384" y="159.76756" fill="#ffffff" stroke-width=".43334"><tspan dx="0" dy="0" fill="#ffffff" font-family="'Liberation Sans'" font-size="10.373px" font-weight="400" stroke-width=".43334">Receiving data from a website</tspan></tspan></text><text transform="scale(.96575 1.0355)" x="42.062332" y="237.49484" style="line-height:125%" xml:space="preserve"><tspan x="42.062332" y="237.49484"><tspan x="42.062332" y="237.49484" fill="#ffffff" stroke-width=".43334">Your<tspan fill="#ffffff" font-family="'Liberation Sans'" font-size="10.373px" font-weight="400" stroke-width=".43334"/></tspan></tspan><tspan x="42.062332" y="250.46121">Device</tspan></text><text transform="scale(.96575 1.0355)" x="145.88951" y="237.65837" style="line-height:125%" xml:space="preserve"><tspan x="145.88951" y="237.65837" fill="#ffffff" stroke-width=".43334"><tspan dx="0" dy="0" fill="#ffffff" font-family="'Liberation Sans'" font-size="10.373px" font-weight="400" stroke-width=".43334">Entry</tspan></tspan></text><text transform="scale(.96575 1.0355)" x="223.78032" y="237.65837" style="line-height:125%" xml:space="preserve"><tspan x="223.78032" y="237.65837" fill="#ffffff" stroke-width=".43334"><tspan dx="0" dy="0" fill="#ffffff" font-family="'Liberation Sans'" font-size="10.373px" font-weight="400" stroke-width=".43334">Middle</tspan></tspan></text><text transform="scale(.96575 1.0355)" x="312.03912" y="237.64203" style="line-height:125%" xml:space="preserve"><tspan x="312.03912" y="237.64203" fill="#ffffff" stroke-width=".43334"><tspan dx="0" dy="0" fill="#ffffff" font-family="'Liberation Sans'" font-size="10.373px" font-weight="400" stroke-width=".43334">Exit</tspan></tspan></text><text transform="scale(.96575 1.0355)" x="363.96094" y="236.25198" style="line-height:125%" xml:space="preserve"><tspan x="363.96094" y="236.25198" fill="#ffffff" stroke-width=".43334"><tspan dx="0" dy="0" fill="#ffffff" font-family="'Liberation Sans'" font-size="10.373px" font-weight="400" stroke-width=".43334">PrivacyGuides.org</tspan></tspan></text><text transform="scale(.96575 1.0355)" x="369.14493" y="91.250931" style="line-height:125%" xml:space="preserve"><tspan x="369.14493" y="91.250931" fill="#ffffff" stroke-width=".43334"><tspan dx="0" dy="0" fill="#ffffff" font-family="'Liberation Sans'" font-size="10.373px" font-weight="400" stroke-width=".43334">PrivacyGuides.org</tspan></tspan></text><text transform="scale(.96575 1.0355)" x="145.88951" y="92.65731" style="line-height:125%" xml:space="preserve"><tspan x="145.88951" y="92.65731" fill="#ffffff" stroke-width=".43334"><tspan dx="0" dy="0" fill="#ffffff" font-family="'Liberation Sans'" font-size="10.373px" font-weight="400" stroke-width=".43334">Entry</tspan></tspan></text><text transform="scale(.96575 1.0355)" x="226.64214" y="92.65731" style="line-height:125%" xml:space="preserve"><tspan x="226.64214" y="92.65731" fill="#ffffff" stroke-width=".43334"><tspan dx="0" dy="0" fill="#ffffff" font-family="'Liberation Sans'" font-size="10.373px" font-weight="400" stroke-width=".43334">Middle</tspan></tspan></text><text transform="scale(.96575 1.0355)" x="312.49701" y="92.477409" style="line-height:125%" xml:space="preserve"><tspan x="312.49701" y="92.477409" fill="#ffffff" stroke-width=".43334"><tspan dx="0" dy="0" fill="#ffffff" font-family="'Liberation Sans'" font-size="10.373px" font-weight="400" stroke-width=".43334">Exit</tspan></tspan></text></g><g fill="#fff" fill-rule="evenodd"><path d="m61.737 51.862v-0.88053h74.686v0.88053z"/><path d="m136.03 48.238 5.9382 3.1835-5.9382 3.1835z"/><path d="m162.02 51.862v-0.88053h54.629v0.88053z"/><path d="m216.26 48.238 5.9382 3.1835-5.9382 3.1835z"/><path d="m242.25 51.862v-0.88053h54.629v0.88053z"/><path d="m296.49 48.238 5.9382 3.1835-5.9382 3.1835z"/><path d="m322.48 51.862v-0.88053h54.629v0.88053z"/><path d="m376.72 48.238 5.9382 3.1835-5.9382 3.1835z"/><path d="m382.66 201.52v0.88052h-54.629v-0.88052z"/><path d="m328.42 205.14-5.9382-3.1834 5.9382-3.1835z"/><path d="m302.43 201.52v0.88052h-54.629v-0.88052z"/><path d="m248.19 205.14-5.9382-3.1834 5.9382-3.1835z"/><path d="m222.2 201.52v0.88052h-54.629v-0.88052z"/><path d="m167.96 205.14-5.9382-3.1834 5.9382-3.1835z"/><path d="m141.97 201.52v0.88052h-74.686v-0.88052z"/><path d="m67.675 205.14-5.9382-3.1834 5.9382-3.1835z"/></g></g></svg>
